HIERARCHY
ROOT Hips
{
	OFFSET 0.000000 0.000000 0.000000
	CHANNELS 6 Xposition Yposition Zposition Zrotation Xrotation Yrotation
	JOINT Spine1
	{
		OFFSET 0.000000 -0.000045 277.694702
		CHANNELS 6 Xposition Yposition Zposition Zrotation Xrotation Yrotation
		JOINT Neck
		{
			OFFSET 0.000000 -0.000036 221.388000
			CHANNELS 6 Xposition Yposition Zposition Zrotation Xrotation Yrotation
			JOINT Head
			{
				OFFSET 0.000000 -18.163622 140.768005
				CHANNELS 6 Xposition Yposition Zposition Zrotation Xrotation Yrotation
				End Site
				{
					OFFSET 0.000000 -0.000029 181.635559
				}
			}
		}
		JOINT LeftShoulder
		{
			OFFSET 36.576698 4.801211 178.758972
			CHANNELS 6 Xposition Yposition Zposition Zrotation Xrotation Yrotation
			JOINT LeftArm
			{
				OFFSET 130.515991 0.000000 0.000000
				CHANNELS 6 Xposition Yposition Zposition Zrotation Xrotation Yrotation
				JOINT LeftForeArm
				{
					OFFSET 255.920990 0.000000 0.000000
					CHANNELS 6 Xposition Yposition Zposition Zrotation Xrotation Yrotation
					JOINT LeftHand
					{
						OFFSET 237.844971 0.000000 0.000000
						CHANNELS 6 Xposition Yposition Zposition Zrotation Xrotation Yrotation
						End Site
						{
							OFFSET 136.226685 0.000000 0.000000
						}
					}
				}
			}
		}
		JOINT RightShoulder
		{
			OFFSET -36.072102 4.801211 178.758972
			CHANNELS 6 Xposition Yposition Zposition Zrotation Xrotation Yrotation
			JOINT RightArm
			{
				OFFSET -130.515991 0.000000 0.000000
				CHANNELS 6 Xposition Yposition Zposition Zrotation Xrotation Yrotation
				JOINT RightForeArm
				{
					OFFSET -255.921005 0.000000 0.000000
					CHANNELS 6 Xposition Yposition Zposition Zrotation Xrotation Yrotation
					JOINT RightHand
					{
						OFFSET -237.845032 0.000000 0.000000
						CHANNELS 6 Xposition Yposition Zposition Zrotation Xrotation Yrotation
						End Site
						{
							OFFSET -136.226685 0.000000 0.000000
						}
					}
				}
			}
		}
	}
	JOINT LeftUpLeg
	{
		OFFSET 90.818001 0.000000 0.000000
		CHANNELS 6 Xposition Yposition Zposition Zrotation Xrotation Yrotation
		JOINT LeftLeg
		{
			OFFSET 0.000000 0.000062 -381.949005
			CHANNELS 6 Xposition Yposition Zposition Zrotation Xrotation Yrotation
			JOINT LeftFoot
			{
				OFFSET 0.000000 0.000065 -400.430023
				CHANNELS 6 Xposition Yposition Zposition Zrotation Xrotation Yrotation
				JOINT LeftToeBase
				{
					OFFSET 0.000000 -136.226974 -59.031677
					CHANNELS 6 Xposition Yposition Zposition Zrotation Xrotation Yrotation
					End Site
					{
						OFFSET 0.000000 -36.327118 0.000000
					}
				}
			}
		}
	}
	JOINT RightUpLeg
	{
		OFFSET -90.818001 0.000000 0.000000
		CHANNELS 6 Xposition Yposition Zposition Zrotation Xrotation Yrotation
		JOINT RightLeg
		{
			OFFSET 0.000000 0.000062 -381.949005
			CHANNELS 6 Xposition Yposition Zposition Zrotation Xrotation Yrotation
			JOINT RightFoot
			{
				OFFSET 0.000000 0.000065 -400.430023
				CHANNELS 6 Xposition Yposition Zposition Zrotation Xrotation Yrotation
				JOINT RightToeBase
				{
					OFFSET 0.000000 -136.226974 -59.031677
					CHANNELS 6 Xposition Yposition Zposition Zrotation Xrotation Yrotation
					End Site
					{
						OFFSET 0.000000 -36.327118 0.000000
					}
				}
			}
		}
	}
}
MOTION
Frames: 7
Frame Time: 0.041667
-33.680573 -18.603823 746.396179 0.502195 17.795233 -2.356183 -0.000003 -0.000019 277.694733 -4.259461 -19.793943 -8.684623 0.000013 -0.000039 221.388077 1.279993 13.486032 2.484063 0.000014 -18.163607 140.767929 1.746993 5.288080 5.717462 36.576687 4.801221 178.758850 0.709400 -8.164541 -18.298715 130.516037 -0.000035 -0.000096 -11.761395 -10.682604 4.206974 255.921051 0.000016 0.000114 2.127314 -4.450335 3.169331 237.844894 -0.000047 0.000088 18.336843 -4.875009 -2.275564 -36.072102 4.801218 178.759018 -4.643704 -1.094710 14.447187 -130.516006 -0.000003 0.000019 24.566792 18.839458 -26.725866 -255.920944 -0.000067 -0.000009 78.051529 38.184412 37.816835 -237.845016 0.000067 -0.000032 -6.521731 6.805897 32.010416 90.818001 0.000031 0.000084 17.241631 -38.298028 -14.330195 0.000010 0.000076 -381.949005 15.033426 33.966876 3.548426 0.000023 0.000068 -400.430054 17.442705 3.343606 6.407318 -0.000004 -136.226944 -59.031677 -0.000002 -0.000001 0.000000 -90.818001 0.000007 0.000019 13.169676 -25.665047 36.713650 0.000026 0.000078 -381.949036 -20.552615 30.775480 -15.453885 0.000011 0.000064 -400.429962 -26.684839 -4.183696 -12.193745 0.000004 -136.227036 -59.031681 0.000001 0.000002 0.000001 
-33.668461 -18.807802 746.456726 0.546358 17.759108 -2.341672 0.000004 0.000027 277.694611 -4.299317 -19.766363 -8.697357 0.000013 -0.000046 221.388016 1.289220 13.483829 2.488178 0.000019 -18.163641 140.767960 1.754756 5.351416 5.735391 36.576710 4.801212 178.758942 0.695265 -8.173363 -18.304729 130.515991 -0.000023 0.000221 -11.774244 -10.733469 4.239620 255.920990 -0.000010 -0.000044 2.152660 -4.429736 3.175802 237.844910 -0.000023 -0.000015 18.327016 -4.853876 -2.268269 -36.072067 4.801201 178.759033 -4.651824 -1.085284 14.452344 -130.516052 -0.000020 0.000109 24.568119 18.785764 -26.754713 -255.920898 -0.000019 -0.000046 78.115869 38.170188 37.730365 -237.845016 -0.000041 -0.000040 -6.495080 6.836989 32.065604 90.818008 0.000042 -0.000080 17.182886 -38.258072 -14.371850 0.000002 0.000080 -381.949036 15.029941 33.946238 3.550078 0.000008 0.000070 -400.429932 17.431244 3.352624 6.411147 0.000008 -136.226959 -59.031738 -0.000001 -0.000000 0.000001 -90.818008 0.000047 -0.000111 13.117574 -25.592422 36.663919 -0.000019 0.000047 -381.949127 -20.539832 30.737340 -15.459467 0.000019 0.000072 -400.429993 -26.710478 -4.178806 -12.214225 0.000043 -136.226959 -59.031673 -0.000003 -0.000002 -0.000000 
-33.643299 -18.886797 746.503662 0.554842 17.756926 -2.332938 0.000004 -0.000004 277.694763 -4.296799 -19.772505 -8.688684 0.000002 -0.000039 221.388138 1.295009 13.476131 2.462930 -0.000003 -18.163599 140.768051 1.762847 5.421102 5.800602 36.576691 4.801209 178.758942 0.682098 -8.177818 -18.319563 130.515961 -0.000050 -0.000034 -11.789250 -10.764889 4.278381 255.921036 -0.000053 -0.000025 2.173713 -4.398390 3.167426 237.845093 0.000052 0.000019 18.326026 -4.823091 -2.269132 -36.072132 4.801209 178.759064 -4.651357 -1.090219 14.438924 -130.516006 -0.000006 -0.000003 24.569029 18.752045 -26.785017 -255.920944 -0.000030 0.000141 78.149290 38.183903 37.676017 -237.845078 0.000058 0.000075 -6.458264 6.900354 32.013223 90.818001 0.000031 0.000038 17.261575 -38.273692 -14.324674 -0.000006 0.000057 -381.948944 14.970574 33.948523 3.537956 0.000015 0.000019 -400.429962 17.417879 3.355386 6.413151 0.000004 -136.226959 -59.031673 0.000000 -0.000001 -0.000001 -90.817993 0.000028 0.000046 13.108485 -25.586683 36.643046 0.000034 0.000063 -381.949005 -20.519135 30.732737 -15.448136 -0.000042 0.000072 -400.430054 -26.717689 -4.175366 -12.256879 0.000001 -136.226990 -59.031673 -0.000002 -0.000001 0.000000 
-33.612198 -18.970526 746.555664 0.570570 17.757363 -2.330684 0.000008 -0.000057 277.694763 -4.304609 -19.773799 -8.694885 -0.000008 -0.000069 221.388107 1.309702 13.463047 2.484872 -0.000005 -18.163559 140.767914 1.775380 5.482861 5.813825 36.576668 4.801182 178.758865 0.645627 -8.179781 -18.311184 130.516006 -0.000009 0.000181 -11.784511 -10.833859 4.297924 255.921021 0.000039 -0.000031 2.200528 -4.369452 3.189767 237.844955 0.000031 0.000135 18.306212 -4.798187 -2.289339 -36.072094 4.801182 178.758972 -4.663535 -1.091913 14.451372 -130.516022 -0.000014 0.000154 24.521603 18.654538 -26.787888 -255.920944 -0.000019 0.000236 78.296446 38.171441 37.495587 -237.845200 0.000041 0.000187 -6.462147 6.969209 32.029148 90.818001 0.000015 0.000050 17.247052 -38.268307 -14.325987 -0.000021 0.000089 -381.949127 14.969096 33.943001 3.536967 0.000000 0.000051 -400.429993 17.417824 3.359367 6.367405 0.000009 -136.227020 -59.031681 -0.000000 0.000001 -0.000000 -90.817993 -0.000003 0.000034 13.098156 -25.574491 36.628617 -0.000027 0.000078 -381.949097 -20.544466 30.723530 -15.429218 -0.000019 0.000064 -400.429962 -26.723438 -4.162076 -12.246324 0.000008 -136.226959 -59.031677 -0.000002 -0.000000 0.000000 
-33.607365 -19.078741 746.621521 0.576529 17.748375 -2.332957 -0.000003 -0.000034 277.694672 -4.288368 -19.770952 -8.681892 0.000002 -0.000046 221.388138 1.300173 13.457503 2.489628 0.000013 -18.163607 140.768112 1.767134 5.521317 5.855391 36.576687 4.801219 178.759018 0.641205 -8.175463 -18.336145 130.515961 -0.000072 -0.000135 -11.820417 -10.879354 4.350833 255.921036 -0.000009 0.000073 2.222330 -4.337105 3.206889 237.844955 -0.000030 -0.000012 18.317331 -4.766517 -2.286187 -36.072094 4.801207 178.759155 -4.691754 -1.098927 14.452171 -130.516037 -0.000010 -0.000165 24.541992 18.671087 -26.818798 -255.920975 0.000018 0.000247 78.277342 38.203820 37.527491 -237.845078 0.000029 0.000071 -6.465024 6.990566 32.014039 90.818001 0.000004 -0.000021 17.259741 -38.246577 -14.311084 -0.000021 0.000074 -381.949127 14.975460 33.920325 3.520132 0.000015 0.000028 -400.429993 17.401901 3.381422 6.381948 -0.000011 -136.226929 -59.031670 -0.000002 -0.000003 0.000000 -90.818008 0.000005 -0.000050 13.090939 -25.567695 36.616122 0.000019 0.000082 -381.949066 -20.560737 30.730199 -15.405989 -0.000004 0.000064 -400.429993 -26.731960 -4.137048 -12.208622 -0.000011 -136.226959 -59.031673 -0.000003 -0.000001 0.000001 
-33.571922 -19.141941 746.656616 0.590051 17.750528 -2.327158 0.000001 -0.000080 277.694611 -4.276765 -19.779985 -8.668498 -0.000004 -0.000008 221.387985 1.305076 13.444882 2.515565 0.000002 -18.163643 140.768021 1.767424 5.572844 5.835431 36.576691 4.801246 178.759018 0.631258 -8.167287 -18.362904 130.515976 -0.000010 -0.000037 -11.853435 -10.926775 4.381936 255.920929 0.000015 -0.000173 2.252232 -4.293379 3.239058 237.844971 -0.000010 -0.000003 18.358372 -4.723655 -2.277117 -36.072086 4.801236 178.759048 -4.706697 -1.103921 14.437381 -130.516037 -0.000010 -0.000105 24.543272 18.666552 -26.841096 -255.921005 -0.000077 0.000156 78.302252 38.227005 37.511037 -237.845062 0.000003 -0.000036 -6.491914 7.012756 32.022235 90.818008 -0.000011 -0.000139 17.235513 -38.241406 -14.324097 -0.000021 0.000084 -381.949066 14.957069 33.916715 3.539046 0.000000 0.000053 -400.429901 17.422114 3.371850 6.383989 -0.000011 -136.226974 -59.031677 -0.000003 0.000000 0.000000 -90.818008 -0.000006 -0.000107 13.081837 -25.559768 36.598042 0.000026 0.000044 -381.949066 -20.500217 30.704986 -15.421787 0.000065 0.000045 -400.429962 -26.792401 -4.136209 -12.257423 0.000004 -136.226944 -59.031673 -0.000001 -0.000002 0.000001 
-33.573208 -19.202763 746.704224 0.600029 17.752135 -2.320576 0.000004 -0.000019 277.694702 -4.270270 -19.785060 -8.658902 -0.000025 -0.000046 221.387985 1.319842 13.418155 2.542377 -0.000001 -18.163662 140.767975 1.777049 5.630825 5.813810 36.576656 4.801206 178.758911 0.636721 -8.165349 -18.380340 130.516006 -0.000034 0.000085 -11.904333 -10.946187 4.403449 255.920975 -0.000008 -0.000135 2.279804 -4.281094 3.269482 237.844940 -0.000079 0.000025 18.370267 -4.717653 -2.305906 -36.072124 4.801198 178.758896 -4.715059 -1.101301 14.435004 -130.516006 -0.000010 -0.000135 24.539104 18.644456 -26.861365 -255.920929 0.000028 -0.000176 78.376270 38.230543 37.453766 -237.845154 -0.000008 -0.000050 -6.511902 7.021764 32.038170 90.818008 0.000008 -0.000002 17.272116 -38.252399 -14.298070 -0.000029 0.000089 -381.949036 14.928681 33.912743 3.524441 0.000031 0.000059 -400.429993 17.415078 3.385779 6.419935 0.000015 -136.226974 -59.031670 0.000002 -0.000002 -0.000001 -90.818008 0.000001 -0.000031 13.075801 -25.558636 36.579891 -0.000035 0.000070 -381.949005 -20.475780 30.697578 -15.414960 0.000050 0.000057 -400.429993 -26.821212 -4.110812 -12.226539 -0.000011 -136.226974 -59.031609 0.000001 -0.000002 0.000001 
